<?xml version="1.0" standalone="no"?>
<!DOCTYPE svg PUBLIC "-//W3C//DTD SVG 20010904//EN"
 "http://www.w3.org/TR/2001/REC-SVG-20010904/DTD/svg10.dtd">
<svg version="1.0" xmlns="http://www.w3.org/2000/svg"
 width="2382.000000pt" height="682.000000pt" viewBox="0 0 2382.000000 682.000000"
 preserveAspectRatio="xMidYMid meet">

<g transform="translate(0.000000,682.000000) scale(0.100000,-0.100000)"
fill="currentColor" stroke="none">
<path d="M17933 5869 c-49 -11 -50 -14 -56 -129 l-4 -75 19 45 c11 25 20 61
20 81 1 33 4 38 37 47 54 17 54 16 67 -25 l13 -38 -2 50 c-2 46 -4 50 -27 52
-14 1 -44 -3 -67 -8z"/>
<path d="M17658 5843 c-8 -10 -22 -34 -31 -53 l-17 -35 20 24 c11 13 20 29 20
37 0 7 10 20 22 28 12 9 18 16 12 16 -6 0 -18 -8 -26 -17z"/>
<path d="M17741 5825 c14 -32 86 -135 95 -135 2 0 -4 17 -14 38 -11 20 -22 49
-26 65 -3 15 -12 27 -18 27 -6 0 -20 8 -31 17 -18 17 -18 17 -6 -12z"/>
<path d="M17410 5830 c-12 -8 -12 -10 5 -10 11 0 27 5 35 10 12 8 12 10 -5 10
-11 0 -27 -5 -35 -10z"/>
<path d="M17568 5823 c7 -3 16 -2 19 1 4 3 -2 6 -13 5 -11 0 -14 -3 -6 -6z"/>
<path d="M17596 5797 c3 -10 9 -15 12 -12 3 3 0 11 -7 18 -10 9 -11 8 -5 -6z"/>
<path d="M17377 5733 c-2 -5 -5 -37 -6 -73 -1 -36 -6 -96 -11 -135 -5 -38 -6
-118 -3 -177 6 -100 5 -108 -12 -108 -17 0 -17 -1 -2 -18 21 -24 21 -41 0 -64
-14 -16 -14 -18 -2 -13 14 5 17 -13 22 -122 4 -70 7 -177 7 -238 0 -114 12
-334 31 -560 6 -71 17 -202 24 -290 25 -317 14 -7 -25 720 -6 105 -11 264 -13
355 -2 160 -1 165 18 162 11 -2 25 -5 30 -5 6 -1 9 4 8 11 -2 7 8 13 25 13 23
2 24 2 5 6 -13 2 -23 7 -23 10 0 7 44 42 53 43 5 0 6 -30 3 -67 -12 -147 -16
-442 -8 -523 l9 -85 1 95 c1 52 9 210 19 351 l17 255 38 21 38 21 1 -166 c1
-120 4 -153 9 -117 5 28 9 84 9 125 1 41 4 99 8 128 5 49 9 55 40 70 33 16 34
16 57 -11 l23 -27 11 24 c7 16 7 27 0 34 -18 18 2 32 49 32 55 0 53 9 -3 12
l-39 1 1 131 2 131 -8 -108 c-5 -60 -11 -115 -14 -123 -7 -19 -24 -18 -28 4
-3 9 -8 -2 -12 -25 -6 -34 -13 -43 -38 -52 -17 -6 -33 -11 -35 -11 -2 0 -1 37
2 83 4 47 0 125 -8 182 l-13 100 0 -175 c0 -96 -3 -184 -7 -196 -6 -16 -63
-54 -82 -54 -3 0 -6 51 -6 113 -1 61 -5 157 -9 212 l-7 100 -1 -151 c-1 -83
-5 -185 -8 -226 l-7 -76 -48 -37 c-27 -20 -53 -34 -59 -30 -6 4 -8 34 -5 78
l4 72 -9 -60 c-14 -84 -18 -89 -19 -19 -1 34 -3 90 -5 125 -4 53 -3 57 4 24 6
-31 8 -20 5 45 -3 56 -1 75 4 55 6 -21 9 6 10 88 1 109 -1 129 -12 110z"/>
<path d="M18013 5659 c-6 -46 -19 -108 -28 -136 -13 -44 -20 -54 -43 -58 -15
-4 -47 -11 -72 -18 l-45 -12 40 -5 c22 -3 41 -2 43 1 2 4 12 4 23 2 16 -5 19
-11 14 -31 -3 -14 -15 -100 -26 -191 -26 -217 -29 -555 -6 -686 32 -176 40
-303 32 -485 -10 -232 -13 -469 -5 -500 4 -14 7 8 7 50 1 41 6 134 12 205 17
184 18 457 2 615 -20 210 -24 369 -12 575 22 365 29 437 43 446 22 14 138 11
138 -3 0 -7 5 -20 10 -28 9 -13 11 -13 19 0 7 9 6 19 -1 27 -19 23 0 27 75 14
39 -7 112 -17 160 -23 l89 -11 -4 -29 c-8 -48 14 -52 62 -10 l44 37 188 2
c168 1 188 -1 189 -15 2 -23 2 -24 -7 -47 -5 -14 0 -11 16 8 17 22 20 31 10
37 -22 14 5 19 111 20 191 2 230 0 224 -10 -3 -6 5 -14 18 -19 14 -6 28 -15
32 -20 10 -17 21 -13 22 9 1 11 -2 18 -8 15 -5 -4 -9 -2 -9 3 0 15 99 21 190
10 183 -21 195 -23 192 -38 -2 -8 -4 -19 -5 -25 -4 -18 38 -10 48 10 8 15 19
19 45 18 l35 -3 -38 13 -39 12 31 23 c17 12 31 29 31 37 0 21 -14 19 -36 -6
-46 -51 -59 -51 -284 -11 l-45 8 40 12 c79 23 214 6 237 -31 5 -8 8 -7 8 4 0
20 -97 59 -149 59 -20 0 -69 -9 -109 -20 -39 -11 -99 -20 -132 -20 l-60 0 17
28 17 27 -30 -26 c-27 -25 -38 -27 -154 -33 -69 -3 -143 -9 -166 -12 -30 -5
-45 -2 -56 10 -9 9 -22 16 -29 16 -10 0 -10 3 -1 12 7 7 12 19 12 27 0 9 -7 3
-15 -13 -9 -16 -13 -36 -11 -43 6 -15 -33 -17 -196 -7 l-106 7 19 20 c10 12
19 24 19 29 0 17 -33 7 -52 -17 -18 -23 -67 -37 -53 -15 15 24 -8 31 -31 9
-22 -20 -30 -21 -111 -15 -48 3 -124 12 -168 18 -67 11 -80 16 -77 31 4 24
-15 22 -23 -3 -5 -15 -16 -20 -43 -21 l-37 -2 35 -7 35 -7 -37 -2 c-21 0 -38
4 -38 9 0 6 -12 10 -26 10 -23 0 -26 3 -21 28 12 53 29 210 25 228 -1 10 -8
-20 -15 -67z"/>
<path d="M17403 5445 c0 -22 2 -30 4 -17 2 12 2 30 0 40 -3 9 -5 -1 -4 -23z"/>
<path d="M20216 5385 c-19 -39 -14 -38 -186 -37 -82 0 -81 0 35 -10 66 -6 122
-14 125 -18 3 -4 11 -9 18 -11 10 -3 8 -12 -9 -34 l-23 -30 27 24 c15 14 27
31 27 39 0 18 118 12 295 -16 108 -17 120 -21 117 -38 -2 -10 -9 -23 -15 -27
-8 -6 -7 -7 3 -5 8 3 20 15 25 27 10 22 13 23 95 17 47 -3 140 -8 208 -12 107
-6 122 -9 118 -23 -5 -13 -4 -13 8 2 10 13 29 17 88 17 40 0 101 7 133 16 65
17 163 13 175 -7 5 -6 19 -10 34 -7 29 6 30 5 15 -25 -8 -18 -6 -17 13 5 21
24 30 26 113 29 50 2 95 1 101 -3 5 -4 44 -8 85 -9 41 -1 79 -4 84 -8 12 -7
18 -8 46 -10 18 -1 20 -6 15 -33 l-6 -33 15 30 c8 17 14 36 15 43 0 14 30 15
165 2 158 -16 201 -19 354 -29 148 -10 161 -14 161 -55 0 -30 55 -12 72 25 2
3 76 3 166 1 130 -4 162 -7 162 -18 0 -10 7 -13 25 -8 16 4 25 2 25 -6 0 -7 8
-2 18 10 18 22 22 23 111 14 82 -9 115 -4 97 13 -3 3 -53 6 -111 7 -58 0 -105
4 -105 9 0 4 -11 5 -25 3 -15 -3 -25 0 -25 7 0 8 -3 8 -9 -1 -6 -11 -35 -12
-137 -7 -169 8 -177 10 -168 38 6 21 6 21 -13 -2 -26 -32 -51 -23 -45 17 2 16
-1 33 -8 37 -15 9 -50 -23 -50 -46 0 -15 -6 -17 -27 -14 -16 3 -79 9 -142 15
-63 5 -117 12 -120 15 -3 3 0 20 7 37 15 41 8 48 -9 10 -16 -37 -49 -61 -49
-35 0 15 -1 15 -12 1 -11 -14 -33 -16 -170 -11 l-158 6 -12 28 c-16 36 -32 37
-53 2 l-16 -28 -171 0 -171 0 -27 27 c-24 24 -30 25 -40 12 -10 -11 -33 -14
-94 -13 -45 1 -103 -3 -129 -10 -29 -7 -74 -9 -113 -5 -53 6 -64 10 -64 25 0
23 -20 35 -30 18 -6 -9 -11 -2 -17 21 -12 47 -37 54 -31 9 3 -19 9 -42 13 -52
7 -18 0 -18 -166 -11 -103 4 -177 11 -181 17 -4 6 2 23 13 38 10 15 19 30 19
33 0 13 -28 5 -34 -9 -3 -8 -12 -15 -19 -15 -21 0 -41 -27 -25 -33 7 -2 10 -8
6 -11 -3 -4 -68 -1 -144 8 -75 9 -166 16 -201 16 l-65 0 7 40 c8 50 -7 53 -29
5z"/>
<path d="M4685 5393 c-11 -3 -24 -10 -30 -15 -7 -7 -3 -8 10 -5 49 13 123 17
154 7 27 -7 32 -7 23 2 -13 13 -123 20 -157 11z"/>
<path d="M4880 5367 c0 -3 12 -12 26 -22 15 -9 23 -12 20 -6 -7 11 -46 35 -46
28z"/>
<path d="M4685 5319 c-12 -4 25 -8 89 -8 60 -1 106 2 102 6 -10 10 -167 12
-191 2z"/>
<path d="M4920 5305 c-7 -9 -8 -15 -2 -15 5 0 12 7 16 15 3 8 4 15 2 15 -2 0
-9 -7 -16 -15z"/>
<path d="M23106 5255 c-9 -26 -7 -32 5 -12 6 10 9 21 6 23 -2 3 -7 -2 -11 -11z"/>
<path d="M4654 5110 c0 -80 2 -112 3 -72 2 39 2 105 0 145 -1 39 -3 7 -3 -73z"/>
<path d="M17833 5100 c-12 -106 -6 -199 12 -203 13 -3 18 179 8 253 l-8 55
-12 -105z"/>
<path d="M22290 5191 c0 -5 -3 -18 -7 -28 -6 -16 -5 -16 10 -4 19 15 23 41 7
41 -5 0 -10 -4 -10 -9z"/>
<path d="M4943 5050 c0 -30 2 -43 4 -27 2 15 2 39 0 55 -2 15 -4 2 -4 -28z"/>
<path d="M17171 5044 c-60 -60 -94 -78 -120 -63 -10 7 -26 9 -36 5 -17 -6 -17
-8 2 -29 26 -27 17 -56 -30 -105 -70 -74 -146 -112 -177 -88 -10 8 -9 4 3 -13
16 -24 15 -25 -36 -78 -28 -29 -56 -53 -61 -53 -5 0 -30 -13 -57 -29 -26 -17
-67 -35 -90 -41 -38 -10 -44 -10 -56 6 -7 10 -14 14 -14 8 -1 -5 -2 -13 -3
-19 -3 -28 -27 -46 -85 -65 -35 -11 -74 -20 -88 -20 -13 0 -40 -9 -61 -19 -62
-32 -138 -51 -151 -38 -8 8 -11 7 -11 -4 0 -14 -11 -21 -164 -98 -47 -24 -85
-45 -83 -47 4 -4 128 41 200 72 32 14 65 23 73 20 8 -3 14 -2 14 2 0 4 10 8
22 9 11 1 24 6 27 10 10 13 133 72 166 80 45 10 132 50 137 63 2 7 13 4 29 -9
l25 -20 18 25 c10 13 23 21 29 17 5 -3 7 -2 4 4 -4 6 33 27 85 49 59 25 98 49
111 67 12 15 35 36 52 46 30 18 63 45 140 113 32 29 69 82 81 116 0 1 15 -3
32 -9 27 -9 34 -8 53 10 18 16 20 24 11 33 -9 9 -12 9 -12 0 0 -9 -5 -10 -19
-3 -10 6 -20 9 -22 8 -4 -3 22 25 90 97 49 52 27 44 -28 -10z"/>
<path d="M4897 4978 c-6 -49 -13 -68 -25 -72 -9 -3 -56 -5 -104 -4 l-87 1 -7
31 -7 30 -11 -33 c-8 -25 -20 -37 -43 -45 -48 -17 -49 -25 -2 -19 l42 6 -6
-89 c-4 -49 -9 -118 -12 -154 l-5 -65 15 80 c8 44 17 111 21 148 4 38 12 70
18 72 6 2 53 6 105 9 l94 6 -6 -120 c-3 -66 -2 -122 3 -125 11 -7 20 47 20
119 0 85 10 136 26 136 11 0 14 -41 17 -202 l2 -203 3 203 2 202 48 1 c56 1
47 5 -30 14 l-57 6 -3 67 -3 67 -8 -67z"/>
<path d="M4933 4955 c0 -22 2 -30 4 -17 2 12 2 30 0 40 -3 9 -5 -1 -4 -23z"/>
<path d="M17651 4755 c0 -93 -6 -267 -12 -385 -8 -139 -9 -251 -3 -315 l9
-100 6 150 c3 83 11 233 18 335 11 156 11 208 -2 335 l-15 150 -1 -170z"/>
<path d="M4444 4854 c3 -9 6 -26 6 -39 0 -24 27 -42 42 -27 12 12 -22 82 -40
82 -9 0 -12 -6 -8 -16z"/>
<path d="M4524 4844 c-18 -14 -18 -14 6 -3 31 14 36 19 24 19 -6 0 -19 -7 -30
-16z"/>
<path d="M4370 4770 c-14 -5 -41 -13 -60 -19 -33 -10 -32 -10 18 -7 32 2 60
10 70 20 18 17 11 19 -28 6z"/>
<path d="M4470 4756 c0 -8 4 -17 9 -20 5 -4 7 3 4 14 -6 23 -13 26 -13 6z"/>
<path d="M4852 4735 c0 -16 2 -22 5 -12 2 9 2 23 0 30 -3 6 -5 -1 -5 -18z"/>
<path d="M4179 4721 c-27 -14 -40 -16 -55 -9 -15 9 -15 7 4 -11 12 -12 20 -26
17 -32 -13 -20 28 -8 61 19 58 46 40 69 -27 33z m1 -21 c-8 -5 -19 -10 -25
-10 -5 0 -3 5 5 10 8 5 20 10 25 10 6 0 3 -5 -5 -10z"/>
<path d="M4056 4639 c-33 -11 -67 -26 -76 -34 -9 -8 -23 -15 -31 -15 -9 0 -24
-6 -35 -14 -18 -14 -18 -15 -1 -22 17 -6 46 4 97 35 8 5 32 17 53 27 30 15 73
48 56 43 -2 -1 -31 -10 -63 -20z"/>
<path d="M17742 4439 c-1 -80 -4 -208 -7 -285 -3 -111 -2 -128 6 -85 5 30 8
158 6 285 -2 163 -3 188 -5 85z"/>
<path d="M3760 4535 c7 -8 17 -15 22 -15 6 0 5 7 -2 15 -7 8 -17 15 -22 15 -6
0 -5 -7 2 -15z"/>
<path d="M3815 4530 c-4 -6 5 -10 20 -10 15 0 24 4 20 10 -3 6 -12 10 -20 10
-8 0 -17 -4 -20 -10z"/>
<path d="M3720 4500 c-14 -5 -51 -17 -82 -26 -32 -10 -58 -21 -58 -25 0 -4
-12 -14 -26 -24 -24 -15 -27 -15 -44 0 -17 15 -19 15 -28 0 -8 -15 -12 -15
-30 -4 -27 17 -37 7 -20 -21 20 -33 76 -22 211 44 127 62 152 80 77 56z"/>
<path d="M4893 4350 c0 -47 2 -66 4 -42 2 23 2 61 0 85 -2 23 -4 4 -4 -43z"/>
<path d="M3320 4350 c-79 -26 -81 -28 -35 -23 48 6 166 51 135 52 -8 0 -53
-13 -100 -29z"/>
<path d="M4641 4354 c0 -11 3 -14 6 -6 3 7 2 16 -1 19 -3 4 -6 -2 -5 -13z"/>
<path d="M4933 4335 c0 -22 2 -30 4 -17 2 12 2 30 0 40 -3 9 -5 -1 -4 -23z"/>
<path d="M3113 4332 c10 -10 14 -22 10 -27 -5 -4 -3 -5 4 -1 8 4 18 -5 28 -24
8 -16 18 -30 21 -30 3 0 2 5 -1 11 -4 6 3 21 16 35 21 23 21 24 3 25 -10 1
-26 1 -35 0 -9 -1 -22 5 -29 14 -7 8 -17 15 -23 15 -5 0 -3 -8 6 -18z m69 -34
c-9 -9 -15 -9 -24 0 -9 9 -7 12 12 12 19 0 21 -3 12 -12z"/>
<path d="M4634 4115 c0 -110 2 -156 3 -103 2 53 2 143 0 200 -1 57 -3 13 -3
-97z"/>
<path d="M3070 4270 c-14 -4 -39 -8 -56 -9 -16 -1 -61 -17 -100 -37 -38 -20
-58 -34 -44 -31 66 13 155 41 197 62 48 24 49 30 3 15z"/>
<path d="M4924 4125 c0 -77 2 -107 3 -67 2 40 2 103 0 140 -2 37 -3 4 -3 -73z"/>
<path d="M15690 4249 c0 -7 8 -21 17 -31 9 -10 18 -29 20 -41 2 -12 10 -28 17
-35 11 -12 13 -8 12 25 0 30 -8 44 -33 66 -18 16 -33 23 -33 16z"/>
<path d="M4903 4160 c0 -41 2 -58 4 -37 2 20 2 54 0 75 -2 20 -4 3 -4 -38z"/>
<path d="M2740 4184 c0 -7 -39 -14 -102 -18 -57 -4 -105 -9 -107 -12 -3 -2 0
-9 5 -14 7 -7 57 -4 147 7 76 9 132 20 124 24 -7 4 -22 6 -33 5 -10 -2 -22 2
-26 8 -6 8 -8 8 -8 0z"/>
<path d="M15658 4165 c-21 -8 -53 -25 -70 -38 -18 -14 -49 -32 -68 -40 -35
-14 -120 -87 -102 -87 6 0 23 14 39 30 15 17 44 35 63 41 19 6 52 24 72 40 21
17 57 38 80 49 50 22 40 25 -14 5z"/>
<path d="M2002 4132 c4 -12 2 -22 -2 -22 -12 0 -70 -59 -70 -71 0 -6 8 -6 19
1 11 5 31 14 45 20 25 9 26 8 20 -17 -5 -18 -4 -24 5 -19 6 4 11 20 11 37 0
16 5 29 11 29 5 0 7 -6 3 -12 -5 -10 -4 -10 6 -1 14 13 5 33 -16 33 -8 0 -14
6 -14 14 0 8 -5 18 -12 22 -8 5 -9 0 -6 -14z"/>
<path d="M2375 4140 c-3 -5 -16 -10 -27 -10 -30 0 -128 -32 -128 -42 0 -13 38
-9 69 7 15 7 49 15 75 17 25 2 46 6 46 9 0 4 15 6 33 5 17 0 34 4 37 9 7 14
-96 19 -105 5z"/>
<path d="M2118 4093 c6 -2 18 -2 25 0 6 3 1 5 -13 5 -14 0 -19 -2 -12 -5z"/>
<path d="M1790 4055 c-25 -7 -61 -19 -80 -27 l-35 -15 50 4 c28 3 70 11 95 18
25 8 61 18 80 23 35 10 34 10 -15 10 -27 0 -70 -6 -95 -13z"/>
<path d="M1560 4012 c0 -5 7 -16 16 -23 14 -12 16 -11 13 5 -4 20 -29 35 -29
18z"/>
<path d="M4892 3990 c0 -19 2 -27 5 -17 2 9 2 25 0 35 -3 9 -5 1 -5 -18z"/>
<path d="M1610 3999 c-12 -8 -9 -10 13 -6 23 4 25 2 15 -11 -11 -13 -10 -14
10 -3 12 6 22 16 22 21 0 13 -41 12 -60 -1z"/>
<path d="M15337 3983 c-31 -4 -36 -7 -27 -18 9 -10 2 -20 -33 -43 -24 -17 -49
-38 -56 -46 -8 -9 -44 -32 -82 -52 -37 -20 -75 -44 -85 -55 -17 -19 -18 -19
-51 13 -25 25 -36 29 -45 20 -9 -9 -7 -17 11 -36 19 -20 20 -26 8 -37 -7 -8
-12 -20 -9 -27 2 -6 -1 -12 -6 -12 -15 0 -132 -79 -178 -121 -67 -60 -90 -72
-113 -59 -15 7 -21 7 -21 0 0 -6 7 -13 15 -16 26 -10 15 -32 -44 -87 -14 -12
-47 -42 -73 -66 -27 -24 -58 -59 -70 -79 -18 -29 -22 -32 -30 -18 -16 28 -78
48 -129 42 -43 -6 -48 -4 -78 29 -22 25 -40 35 -60 35 -27 0 -143 59 -201 102
-41 30 -124 48 -181 39 -58 -9 -88 -29 -34 -23 51 6 73 -2 161 -59 93 -61 219
-107 246 -90 27 17 36 14 70 -25 30 -34 34 -36 80 -30 32 5 59 2 83 -8 48 -20
54 -42 21 -73 -16 -14 -25 -31 -22 -40 4 -9 2 -11 -6 -7 -15 10 -77 11 -71 2
2 -5 12 -8 22 -8 9 0 27 -9 39 -20 12 -11 23 -20 26 -20 2 0 7 18 11 41 4 23
15 45 26 52 10 6 19 17 19 24 0 7 28 35 63 62 34 27 71 65 81 85 11 20 24 36
30 36 6 0 17 10 25 22 l13 21 19 -24 c10 -13 19 -19 19 -13 0 5 -5 15 -11 21
-6 6 -8 20 -4 32 8 26 170 147 291 219 48 28 53 29 70 14 18 -16 18 -16 1 4
-24 29 -15 45 50 90 31 22 79 59 107 84 28 25 63 56 78 69 24 21 31 23 53 13
24 -11 36 0 15 13 -8 5 -7 11 1 21 6 8 10 13 8 12 -2 -1 -21 -3 -42 -5z"/>
<path d="M12205 3954 c-10 -15 -14 -36 -11 -52 5 -25 -1 -31 -70 -76 -45 -28
-89 -49 -107 -50 -27 -1 -32 3 -38 34 -9 44 -32 60 -84 60 -61 0 -107 -34
-120 -88 -11 -45 -54 -97 -62 -74 -3 6 -14 12 -25 12 -18 0 -19 2 -8 18 7 9 0
4 -14 -12 -15 -15 -29 -40 -32 -55 -8 -39 -56 -56 -80 -30 -9 10 -25 19 -34
19 -9 0 -25 7 -36 15 -30 23 -104 18 -159 -9 -34 -18 -73 -27 -135 -32 -81 -6
-87 -5 -85 13 0 10 4 24 9 31 5 9 1 10 -19 2 -36 -14 -35 -14 -29 18 7 35 -16
62 -53 62 -13 0 -33 10 -42 21 -16 20 -23 21 -67 13 l-49 -8 38 -4 c31 -3 37
-7 37 -26 0 -32 19 -46 60 -46 35 0 36 -1 47 -52 11 -52 10 -54 -20 -85 -38
-40 -29 -42 32 -5 41 25 49 27 71 15 34 -17 154 -17 189 1 15 8 35 26 44 40 9
13 37 32 62 41 45 18 46 18 71 -6 14 -13 30 -35 37 -49 17 -36 55 -37 103 -2
53 38 79 30 92 -30 l9 -43 12 29 c7 19 10 50 6 81 l-7 52 45 17 c37 14 48 24
57 51 7 23 22 38 46 50 46 22 67 16 77 -20 17 -55 22 -60 71 -63 46 -3 49 -1
115 62 76 74 101 83 101 35 0 -39 16 -29 31 20 9 30 20 42 49 55 46 20 48 20
95 -4 22 -11 47 -20 57 -20 10 0 24 -13 32 -29 19 -36 90 -78 145 -87 34 -5
48 -3 71 15 42 30 125 29 189 -4 60 -30 68 -48 39 -87 l-21 -31 26 17 c14 10
28 24 31 32 5 12 18 5 58 -30 58 -51 87 -57 117 -25 l19 21 55 -41 c31 -22 58
-45 62 -51 3 -5 15 -15 26 -21 31 -16 -42 81 -90 119 -46 37 -67 40 -96 12
l-21 -20 -61 30 c-55 28 -60 33 -58 60 2 26 0 28 -16 20 -14 -8 -26 -3 -54 22
-57 49 -196 66 -231 27 -17 -19 -27 -21 -79 -16 -80 8 -93 14 -100 47 -5 23
-19 34 -72 59 -76 36 -108 39 -123 11 -13 -24 -65 -28 -74 -4 -4 10 -13 13
-26 9 -23 -7 -25 -2 -10 26 15 28 5 23 -15 -7z"/>
<path d="M1450 3946 c-47 -13 -95 -28 -105 -34 -21 -13 -21 -13 106 3 26 3 61
17 80 30 40 30 30 30 -81 1z"/>
<path d="M1642 3940 c0 -14 2 -19 5 -12 2 6 2 18 0 25 -3 6 -5 1 -5 -13z"/>
<path d="M17622 3815 c-1 -67 -9 -175 -18 -240 -16 -121 -16 -173 3 -525 5
-103 8 -126 14 -95 4 22 3 105 -3 185 -14 194 -14 301 1 445 7 66 11 172 9
235 l-4 115 -2 -120z"/>
<path d="M4876 3873 c-3 -27 -5 -118 -4 -203 0 -85 3 -144 5 -130 13 89 15 96
24 75 7 -15 8 -11 4 14 -3 18 -5 45 -6 60 0 24 -1 24 -10 6 -6 -13 -8 22 -4
103 5 127 2 155 -9 75z"/>
<path d="M1135 3900 c-3 -5 -3 -15 1 -22 4 -6 -1 -17 -10 -24 -15 -10 -13 -12
16 -9 18 2 46 6 62 10 19 5 31 3 38 -6 7 -10 8 -6 4 13 -4 16 -1 28 6 30 6 2
-4 4 -23 4 -19 0 -46 3 -61 7 -15 4 -29 3 -33 -3z"/>
<path d="M1270 3883 c-13 -15 -12 -16 4 -10 10 4 20 7 22 7 2 0 4 5 4 10 0 15
-13 12 -30 -7z"/>
<path d="M4622 3870 c0 -19 2 -27 5 -17 2 9 2 25 0 35 -3 9 -5 1 -5 -18z"/>
<path d="M17403 3865 c0 -22 2 -30 4 -17 2 12 2 30 0 40 -3 9 -5 -1 -4 -23z"/>
<path d="M839 3843 c-1 -5 -2 -14 -3 -22 -2 -20 -62 -39 -126 -40 -30 -1 -71
-6 -90 -12 -19 -6 -58 -11 -86 -12 -45 -2 -50 0 -49 18 2 14 1 15 -2 3 -2 -10
-9 -18 -14 -18 -5 0 -9 -4 -9 -9 0 -20 278 2 322 25 42 21 54 17 28 -11 -13
-14 -21 -27 -18 -31 6 -5 49 50 45 57 -1 2 6 -5 15 -16 16 -19 18 -19 45 -4
15 9 61 27 101 39 41 12 72 23 70 25 -1 2 -45 -2 -97 -7 -84 -10 -95 -9 -106
5 -13 18 -24 22 -26 10z"/>
<path d="M10738 3829 c-10 -5 -18 -18 -18 -27 0 -9 -9 -30 -20 -47 -11 -16
-20 -37 -20 -45 0 -8 -16 -28 -35 -43 -19 -15 -35 -23 -35 -17 0 5 -8 2 -18
-8 -12 -12 -41 -22 -77 -26 -31 -3 -104 -22 -161 -41 -131 -44 -149 -45 -139
-7 6 26 6 26 -17 -7 -16 -23 -42 -41 -83 -58 -33 -14 -68 -35 -78 -48 -10 -13
-33 -29 -52 -35 -20 -6 -40 -20 -45 -30 -5 -10 -23 -21 -40 -25 -23 -5 -39 0
-75 25 -25 17 -45 29 -45 26 0 -2 20 -25 43 -51 41 -44 46 -46 82 -39 38 7 58
21 149 107 45 43 55 48 87 44 20 -3 44 0 54 5 16 9 17 7 13 -26 -3 -29 -2 -34
9 -24 7 7 18 31 26 52 l14 40 148 37 c81 20 159 42 172 48 13 6 39 11 58 11
30 0 36 -4 41 -27 3 -16 7 -32 8 -38 2 -5 8 0 14 12 9 16 9 35 3 65 -9 40 -8
45 25 87 18 24 34 55 34 67 0 26 34 41 71 31 16 -4 18 -3 8 9 -13 16 -76 18
-101 3z"/>
<path d="M6195 3779 c-27 -10 -56 -17 -63 -14 -8 3 -26 -3 -40 -13 -15 -10
-58 -31 -97 -47 -38 -15 -103 -46 -143 -68 -53 -28 -79 -37 -98 -33 -13 4 -22
11 -19 16 3 5 1 11 -4 14 -5 3 -11 -8 -15 -24 -4 -21 -14 -33 -33 -40 -16 -6
-37 -15 -48 -20 -11 -5 -55 -25 -98 -44 -42 -19 -91 -44 -107 -56 -17 -12 -37
-20 -44 -17 -7 3 -30 -10 -51 -29 -21 -19 -44 -34 -51 -34 -7 0 -37 -22 -67
-50 l-55 -50 -113 15 c-62 8 -136 15 -165 15 l-53 0 -4 73 -3 72 -2 -74 c-2
-71 -3 -73 -24 -67 -13 3 -26 6 -30 6 -5 0 -9 17 -10 38 l-1 37 -4 -33 c-3
-25 -8 -32 -20 -28 -8 3 -23 6 -33 6 -16 0 -20 9 -23 63 l-3 62 -2 -62 c-2
-53 -5 -63 -23 -68 -11 -4 -23 -4 -27 -1 -3 4 -6 86 -6 183 -1 97 -4 159 -8
137 -9 -50 -10 -180 -2 -266 l7 -66 61 -5 c33 -3 86 -10 116 -16 31 -6 105
-15 165 -20 86 -8 112 -13 122 -28 11 -15 17 -15 33 -5 11 6 27 12 35 12 9 0
34 17 58 38 55 51 163 116 176 107 6 -3 11 0 12 7 0 7 4 4 9 -7 8 -20 9 -20 9
1 1 17 21 29 101 64 55 23 118 56 141 72 22 16 47 27 55 24 8 -3 26 1 40 10
19 13 24 14 25 3 0 -8 4 -5 9 6 5 14 36 31 96 54 49 18 119 46 156 62 56 25
72 28 89 18 20 -10 21 -9 17 9 -5 17 4 25 53 47 33 14 59 28 59 31 0 5 3 6
-55 -17z"/>
<path d="M6325 3785 c28 -8 53 -14 57 -15 4 0 23 -16 42 -35 20 -19 43 -35 51
-35 12 0 15 -6 10 -20 -5 -14 -2 -20 9 -20 9 0 15 -3 15 -7 -1 -5 -1 -19 0
-32 1 -31 18 -17 23 19 4 24 8 21 71 -42 41 -41 82 -71 105 -78 20 -7 51 -21
68 -31 47 -28 84 -24 150 19 84 54 174 81 174 52 0 -5 9 -10 19 -10 10 0 22
-7 25 -16 10 -25 23 -8 18 24 -3 21 1 31 13 35 9 4 84 14 168 22 84 9 199 23
256 31 58 8 106 14 108 14 2 0 -1 -9 -7 -21 -7 -11 -10 -23 -7 -25 2 -2 10 7
17 21 13 25 30 33 30 15 0 -5 10 -10 21 -10 17 0 20 -5 16 -21 -4 -16 -3 -18
9 -8 8 6 14 20 14 30 0 14 11 19 48 24 26 3 78 11 116 17 38 5 83 8 100 6 17
-3 42 -2 56 3 20 5 15 7 -22 8 -26 1 -50 6 -54 12 -7 12 -36 8 -171 -23 -92
-22 -93 -22 -107 -2 -13 17 -13 22 1 44 11 17 2 12 -26 -15 l-42 -40 -167 -1
c-163 -1 -169 -2 -272 -37 -73 -24 -109 -32 -117 -25 -7 6 -20 8 -28 4 -12 -4
-14 0 -10 22 3 15 2 20 -1 12 -20 -44 -47 -70 -74 -70 -16 0 -64 -14 -105 -30
l-76 -30 -42 24 c-23 13 -55 27 -70 30 -15 4 -55 27 -88 51 -34 25 -67 45 -74
45 -6 0 -22 9 -35 20 -12 11 -26 17 -31 14 -14 -8 -66 27 -77 51 -11 23 -76
46 -129 44 -21 0 -16 -4 22 -14z"/>
<path d="M4623 3730 c0 -25 2 -35 4 -22 2 12 2 32 0 45 -2 12 -4 2 -4 -23z"/>
<path d="M4902 3745 c0 -16 2 -22 5 -12 2 9 2 23 0 30 -3 6 -5 -1 -5 -18z"/>
<path d="M4694 3749 c-3 -6 0 -16 7 -23 11 -10 25 -8 69 11 46 20 35 26 -14 7
-9 -3 -16 -1 -16 5 0 14 -37 14 -46 0z"/>
<path d="M370 3720 c-23 -7 -23 -8 -3 -9 12 -1 25 4 28 9 3 6 5 10 3 9 -2 -1
-14 -5 -28 -9z"/>
<path d="M17766 3415 c2 -361 16 -615 40 -711 9 -36 19 -63 21 -60 2 2 0 21
-6 43 -6 21 -11 92 -11 158 0 66 -7 210 -15 320 -8 110 -15 259 -16 330 0 72
-4 155 -8 185 -4 30 -6 -89 -5 -265z"/>
<path d="M462 3695 c0 -16 2 -22 5 -12 2 9 2 23 0 30 -3 6 -5 -1 -5 -18z"/>
<path d="M17398 3670 c-10 -74 2 -333 16 -342 7 -5 10 -61 9 -170 -1 -114 1
-148 7 -113 13 78 12 240 -2 272 -8 17 -14 102 -18 218 -4 143 -7 176 -12 135z"/>
<path d="M8563 3686 c-23 -19 -33 -22 -48 -13 -10 5 -51 12 -90 14 -38 2 -91
6 -116 9 -35 4 -59 1 -94 -15 -57 -25 -55 -25 -56 -3 0 12 -3 10 -10 -7 -14
-36 1 -46 55 -32 56 14 109 14 122 1 7 -7 48 -8 125 -2 99 8 115 7 126 -7 7
-10 8 -22 2 -33 -17 -31 -9 -33 16 -3 13 17 24 36 25 43 0 9 14 12 48 10 38
-2 46 -6 44 -21 -4 -23 4 -25 136 -30 111 -5 113 -4 93 14 -16 15 -37 19 -98
21 -65 1 -80 4 -92 20 -12 17 -21 19 -71 13 -65 -7 -108 8 -88 32 17 21 2 15
-29 -11z"/>
<path d="M4684 3560 c0 -52 1 -74 3 -47 2 26 2 68 0 95 -2 26 -3 4 -3 -48z"/>
<path d="M9020 3611 c16 -4 26 -15 28 -29 2 -14 14 -27 30 -33 15 -5 35 -14
44 -19 10 -6 29 -10 44 -10 14 0 32 -7 40 -15 19 -19 51 -19 84 0 33 19 37 19
43 -6 4 -15 11 -20 22 -15 13 5 15 1 10 -17 -5 -19 -3 -18 22 8 26 27 34 30
74 27 24 -2 50 -9 56 -14 7 -6 60 -12 117 -13 58 -2 114 -9 126 -15 13 -7 20
-7 20 -1 0 17 -77 51 -115 51 -20 0 -50 7 -67 16 -25 13 -45 15 -92 9 -116
-14 -126 -14 -126 3 0 8 8 25 17 36 10 12 4 8 -13 -7 -25 -23 -43 -29 -87 -32
-46 -3 -56 0 -60 15 -4 14 -19 19 -75 25 -50 5 -76 12 -88 26 -10 11 -29 19
-48 18 -29 -1 -30 -1 -6 -8z"/>
<path d="M13403 3578 c-4 -7 -6 -22 -4 -32 2 -15 -2 -18 -18 -13 -12 3 -19 1
-15 -4 10 -17 46 -9 51 11 7 27 13 25 59 -11 34 -28 105 -65 156 -82 17 -6 16
-9 -2 -52 -24 -55 -9 -51 45 14 l36 45 -25 13 c-32 17 -32 22 -4 59 22 29 22
28 -15 -3 -21 -18 -42 -33 -48 -33 -6 0 -47 23 -92 50 -83 51 -110 59 -124 38z"/>
<path d="M4766 3469 c-4 -39 -5 -73 -3 -76 3 -2 8 28 12 67 4 39 5 73 2 76 -2
3 -8 -27 -11 -67z"/>
<path d="M4898 3490 c-1 -28 0 -50 5 -50 4 0 7 23 7 50 0 65 -7 65 -12 0z"/>
<path d="M17952 3450 c0 -19 2 -27 5 -17 2 9 2 25 0 35 -3 9 -5 1 -5 -18z"/>
<path d="M3235 3356 c-9 -14 -14 -35 -11 -51 8 -41 14 -41 21 -1 4 20 11 39
16 42 12 7 11 34 -1 34 -5 0 -17 -11 -25 -24z"/>
<path d="M4340 3321 c0 -22 -5 -42 -12 -44 -7 -3 -3 -6 9 -6 12 -1 24 -7 26
-13 3 -8 6 -6 6 5 1 10 9 17 21 17 13 0 18 5 14 15 -4 8 -15 15 -25 15 -14 0
-19 7 -19 25 0 14 -4 25 -10 25 -5 0 -10 -18 -10 -39z"/>
<path d="M2931 3320 c0 -33 1 -34 10 -11 6 16 6 28 -1 35 -7 7 -10 -1 -9 -24z"/>
<path d="M3609 3324 c-23 -28 -56 -34 -143 -23 -51 6 -97 7 -117 1 -28 -7 -14
-10 83 -16 138 -9 169 -4 185 29 13 29 11 31 -8 9z"/>
<path d="M3008 3321 c-53 -8 -67 -16 -51 -32 7 -7 46 -5 129 9 113 19 116 20
57 21 -34 0 -67 3 -75 5 -7 2 -34 0 -60 -3z"/>
<path d="M3660 3311 c0 -7 -5 -9 -12 -5 -6 4 -8 3 -5 -3 4 -6 16 -13 27 -16
18 -5 19 -3 8 11 -7 9 -14 19 -15 21 -2 2 -3 -1 -3 -8z"/>
<path d="M4010 3311 c0 -5 -3 -18 -6 -28 -5 -14 -4 -15 4 -3 9 12 13 12 30 -3
35 -32 45 -15 12 21 -22 23 -40 29 -40 13z"/>
<path d="M4450 3304 c-23 -14 -22 -14 25 -8 75 10 100 23 45 22 -25 0 -56 -6
-70 -14z"/>
<path d="M5071 3304 c0 -11 3 -14 6 -6 3 7 2 16 -1 19 -3 4 -6 -2 -5 -13z"/>
<path d="M17916 3215 c3 -60 8 -213 12 -340 3 -130 9 -215 12 -195 5 24 8 3 9
-65 1 -55 6 -118 11 -140 13 -57 41 -248 36 -252 -1 -2 -21 0 -42 5 -34 7 -40
12 -45 42 l-6 35 -2 -38 -1 -38 -87 7 c-49 4 -89 7 -90 8 -3 3 -70 559 -79
654 -4 40 -9 71 -11 68 -10 -10 44 -614 63 -708 l5 -26 -78 -5 c-43 -3 -89 -7
-103 -9 -28 -3 -27 -8 -50 267 -6 77 -15 167 -21 200 -5 33 -14 105 -19 160
l-9 100 4 -120 c2 -66 13 -230 24 -365 11 -135 21 -246 21 -247 0 -2 -7 -3
-15 -3 -8 0 -15 -4 -15 -10 0 -6 -29 -10 -67 -10 -38 -1 -86 -4 -109 -9 -40
-8 -40 -7 -36 21 6 38 -11 36 -25 -3 -9 -22 -17 -30 -28 -26 -8 4 -23 -2 -33
-13 -14 -15 -35 -21 -88 -24 -38 -2 -116 -8 -174 -12 -102 -7 -105 -7 -90 12
10 12 2 9 -21 -8 -33 -24 -36 -25 -32 -8 10 37 -15 21 -31 -20 -27 -67 -15
-81 29 -34 l25 27 9 -24 c5 -13 6 -28 3 -33 -3 -5 0 -6 7 -2 7 5 10 15 7 23
-10 25 12 43 45 36 17 -3 40 -1 52 5 12 6 63 13 112 15 50 2 98 7 108 11 12 6
17 4 17 -8 0 -23 17 -20 25 4 4 11 11 18 16 14 6 -3 17 0 26 8 9 7 32 14 52
14 20 1 81 5 136 9 l100 8 14 -124 c8 -68 15 -155 17 -194 1 -38 5 -97 8 -130
10 -95 61 -382 64 -359 2 11 -8 88 -22 170 -14 82 -30 219 -36 304 -6 85 -13
197 -17 248 -3 52 -2 92 3 93 22 3 132 11 164 12 l34 2 17 -111 c29 -188 33
-171 12 50 l-6 69 89 -8 c49 -4 91 -9 93 -10 2 -2 7 -61 12 -132 18 -260 31
-400 43 -463 17 -80 19 -61 6 45 -11 92 -42 546 -38 550 2 1 21 0 44 -2 l41
-5 16 -66 c10 -37 24 -146 32 -242 16 -186 37 -358 59 -480 l13 -75 -3 153
c-4 179 -24 345 -60 492 -5 20 -3 22 5 10 9 -12 11 -10 6 10 -26 121 -41 210
-37 215 10 9 33 5 27 -5 -4 -6 51 -7 155 -3 166 6 166 6 161 -33 -1 -6 5 -11
13 -11 11 0 13 5 5 19 -5 10 -9 26 -7 36 3 15 -13 17 -177 20 -99 2 -182 6
-184 8 -2 2 -10 52 -17 111 -7 59 -17 135 -23 168 -15 90 -49 322 -57 388 -3
31 -3 97 2 145 8 83 9 85 14 37 l5 -50 9 78 c4 43 5 82 1 85 -4 4 -15 -4 -26
-17 l-19 -23 -1 63 c-1 35 -5 75 -10 89 -5 15 -6 -19 -3 -85z"/>
<path d="M2471 3294 c0 -11 3 -14 6 -6 3 7 2 16 -1 19 -3 4 -6 -2 -5 -13z"/>
<path d="M3268 3303 c6 -2 18 -2 25 0 6 3 1 5 -13 5 -14 0 -19 -2 -12 -5z"/>
<path d="M3740 3300 c-24 -5 1 -8 75 -8 61 0 118 2 127 6 24 10 -159 11 -202
2z"/>
<path d="M2738 3295 c-3 -3 -45 -10 -94 -16 -135 -15 -139 -15 -136 -29 2 -7
10 -23 19 -34 10 -13 13 -15 10 -5 -7 22 32 39 91 39 26 0 72 7 102 15 30 8
71 15 90 16 l35 1 -40 9 c-48 10 -70 11 -77 4z"/>
<path d="M2874 3291 c10 -16 46 -20 46 -5 0 8 -10 14 -26 14 -14 0 -23 -4 -20
-9z"/>
<path d="M4165 3285 c39 -6 87 -10 108 -7 70 9 37 18 -70 19 l-108 1 70 -13z"/>
<path d="M2891 3254 c0 -11 3 -14 6 -6 3 7 2 16 -1 19 -3 4 -6 -2 -5 -13z"/>
<path d="M2330 3245 c-105 -20 -158 -33 -135 -34 26 -1 246 37 253 44 9 8 -37
4 -118 -10z"/>
<path d="M2113 3233 c-32 -6 -29 -33 3 -33 15 0 33 -8 40 -17 10 -15 10 -11 1
20 -7 20 -14 36 -17 36 -3 -1 -15 -4 -27 -6z"/>
<path d="M1930 3210 c-78 -14 -126 -28 -105 -30 48 -5 105 -1 141 9 21 6 54
11 73 11 19 0 32 2 30 4 -10 9 -99 13 -139 6z"/>
<path d="M4823 3150 c0 -36 2 -50 4 -32 2 17 2 47 0 65 -2 17 -4 3 -4 -33z"/>
<path d="M1672 3173 c8 -10 5 -13 -10 -13 -12 0 -23 -4 -26 -9 -3 -4 -38 -11
-77 -14 -40 -3 -77 -11 -83 -17 -14 -14 240 -2 268 13 15 7 22 5 32 -7 10 -14
12 -11 12 21 l1 38 -64 0 c-49 0 -61 -3 -53 -12z"/>
<path d="M1365 3114 c-9 -9 -15 -17 -13 -18 2 -1 11 -8 21 -16 10 -7 17 -9 16
-4 -4 21 2 26 18 13 14 -12 14 -10 -1 14 -21 32 -20 31 -41 11z"/>
<path d="M1170 3090 c-19 -4 -48 -13 -65 -19 -18 -8 -47 -10 -73 -6 -34 5 -48
3 -63 -11 -25 -22 -24 -34 2 -34 11 0 17 -4 14 -10 -3 -5 -1 -10 4 -10 6 0 11
6 11 13 0 21 38 39 60 27 32 -17 82 -11 140 16 30 15 66 30 80 34 33 11 -60
11 -110 0z m-180 -50 c-8 -5 -19 -10 -25 -10 -5 0 -3 5 5 10 8 5 20 10 25 10
6 0 3 -5 -5 -10z"/>
<path d="M14288 3026 c-40 -40 -85 -88 -100 -107 l-27 -34 -1 28 c0 15 -5 27
-11 27 -6 0 -9 -15 -7 -37 2 -26 -1 -37 -9 -36 -7 2 -13 -2 -13 -8 0 -8 -6 -7
-17 2 -14 12 -16 12 -11 0 5 -17 58 -34 58 -20 0 5 27 37 61 71 60 62 164 188
154 188 -2 0 -37 -33 -77 -74z"/>
<path d="M4812 3020 c0 -19 2 -27 5 -17 2 9 2 25 0 35 -3 9 -5 1 -5 -18z"/>
<path d="M815 3028 c-11 -7 -36 -15 -55 -18 -29 -6 -32 -8 -17 -15 11 -5 50 0
95 10 104 25 115 32 51 33 -30 1 -63 -4 -74 -10z"/>
<path d="M661 3017 c-6 -8 -35 -18 -63 -21 -46 -6 -232 -65 -259 -82 -6 -4 -6
-11 1 -18 8 -10 39 -4 148 30 75 24 147 43 159 44 16 0 25 8 29 25 8 31 1 41
-15 22z"/>
<path d="M17411 2974 c0 -11 3 -14 6 -6 3 7 2 16 -1 19 -3 4 -6 -2 -5 -13z"/>
<path d="M4884 2820 c0 -91 2 -128 3 -82 2 45 2 119 0 165 -1 45 -3 8 -3 -83z"/>
<path d="M4597 2786 c-4 -87 -6 -161 -3 -163 6 -6 18 235 14 282 -1 22 -6 -32
-11 -119z"/>
<path d="M14055 2752 c-39 -42 -81 -92 -94 -111 l-24 -33 -17 22 c-22 29 -43
18 -35 -19 6 -29 -37 -131 -55 -131 -5 0 -50 -52 -100 -115 -51 -63 -96 -116
-101 -116 -5 -1 -14 -2 -19 -3 -6 0 -19 -14 -29 -31 -33 -54 -143 -165 -222
-226 -91 -69 -109 -91 -49 -57 24 12 98 77 166 143 100 98 124 117 126 100 5
-33 23 -18 26 22 3 32 16 51 80 118 42 44 94 102 115 128 21 26 43 45 48 42
13 -8 70 56 67 76 -2 8 16 37 38 62 67 76 164 207 153 207 -2 0 -36 -35 -74
-78z"/>
<path d="M4866 2467 c-4 -71 -5 -131 -3 -133 7 -7 20 217 15 242 -2 10 -8 -39
-12 -109z"/>
<path d="M17892 2335 c0 -16 2 -22 5 -12 2 9 2 23 0 30 -3 6 -5 -1 -5 -18z"/>
<path d="M4584 2215 c0 -60 1 -84 3 -52 2 32 2 81 0 110 -2 29 -3 3 -3 -58z"/>
<path d="M4853 2240 c0 -41 2 -58 4 -37 2 20 2 54 0 75 -2 20 -4 3 -4 -38z"/>
<path d="M19730 2265 c0 -29 -39 -36 -203 -35 -89 1 -170 -1 -179 -4 -51 -17
-50 -18 -43 15 5 22 4 29 -4 25 -6 -4 -11 -16 -11 -27 0 -16 -8 -19 -52 -20
-29 -1 -71 -3 -93 -5 -193 -14 -225 -18 -225 -27 0 -6 -7 -2 -15 9 -8 11 -15
14 -15 7 0 -7 -7 -13 -15 -13 -17 0 -20 16 -5 25 6 3 10 12 10 18 0 7 -8 0
-17 -14 l-16 -27 -205 0 -204 0 6 26 6 27 -20 -24 c-22 -25 -26 -46 -10 -56 6
-3 10 -3 10 2 0 11 276 10 287 -1 5 -5 -12 -6 -39 -3 -27 4 -50 2 -53 -3 -4
-6 37 -10 109 -10 72 0 116 -4 118 -11 2 -7 12 -7 31 0 23 9 27 8 28 -7 0 -10
5 -6 11 11 9 26 13 28 66 26 73 -2 153 5 221 20 57 12 72 8 53 -11 -7 -7 -12
-18 -12 -25 0 -22 20 -15 32 12 17 38 63 46 263 50 l185 3 0 -29 c0 -33 6 -36
32 -12 15 14 49 19 156 26 75 5 160 8 187 8 40 0 46 2 27 9 -12 5 -95 10 -183
11 -89 0 -168 3 -175 6 -8 3 -14 14 -14 24 0 10 -7 19 -15 19 -8 0 -15 -7 -15
-15z m-733 -81 c-3 -3 -12 -4 -19 -1 -8 3 -5 6 6 6 11 1 17 -2 13 -5z"/>
<path d="M20206 2253 c-9 -9 -36 -72 -36 -84 0 -5 10 -5 23 0 12 5 56 7 97 5
198 -10 253 -11 225 -4 -16 4 -46 8 -65 9 -19 1 -53 8 -75 16 -22 8 -57 14
-78 15 -36 0 -37 1 -31 28 l7 27 -30 -27 c-35 -33 -48 -36 -33 -7 12 21 9 35
-4 22z"/>
<path d="M20586 2196 c-14 -25 -26 -56 -26 -71 0 -25 1 -25 17 -10 14 15 39
16 199 13 130 -2 186 0 195 9 19 19 0 35 -34 27 -41 -9 -242 -14 -285 -7 -32
5 -33 7 -28 38 10 50 -9 50 -38 1z"/>
<path d="M4832 2185 c0 -16 2 -22 5 -12 2 9 2 23 0 30 -3 6 -5 -1 -5 -18z"/>
<path d="M21539 2186 c-7 -14 -26 -33 -42 -41 -39 -19 -48 -19 -41 3 2 9 -5
-2 -17 -25 -24 -44 -18 -73 7 -38 12 16 18 17 33 8 15 -10 22 -9 31 2 7 9 46
15 123 19 62 3 152 8 201 12 87 6 89 6 83 -15 -6 -24 11 -29 19 -6 9 22 33 18
44 -7 8 -21 9 -21 9 -3 1 19 6 20 78 14 43 -3 123 -3 178 -1 84 4 103 2 114
-12 17 -20 40 -21 47 -1 4 8 10 15 15 15 4 0 6 -7 2 -16 -5 -13 -3 -15 13 -6
12 6 81 8 186 5 l167 -6 -16 -23 c-9 -15 -11 -24 -4 -24 6 0 18 11 27 25 9 14
20 22 25 19 9 -5 75 -10 282 -20 76 -4 140 -11 143 -15 7 -13 48 -11 61 2 13
13 28 -24 17 -42 -4 -8 -3 -9 4 -5 15 9 16 76 1 76 -7 0 -9 9 -6 21 5 19 4 20
-12 5 -10 -9 -29 -16 -42 -16 -14 0 -29 -4 -35 -8 -8 -8 -281 3 -352 14 -26 4
-32 9 -28 21 6 14 4 14 -11 2 -15 -12 -16 -12 -10 4 8 22 2 22 -21 -3 -17 -18
-24 -19 -103 -10 -46 5 -128 10 -181 10 -87 0 -98 2 -98 18 0 13 -2 14 -9 4
-6 -10 -37 -12 -147 -6 -76 3 -176 7 -222 8 -59 2 -86 7 -92 16 -7 12 -10 11
-16 -3 -5 -14 -17 -17 -73 -15 -36 2 -126 -1 -199 -6 l-134 -8 17 32 c12 22
13 36 6 43 -7 7 -14 2 -22 -17z"/>
<path d="M21002 2152 c-6 -30 -12 -60 -12 -68 0 -22 17 -17 23 7 4 14 11 20
21 16 8 -3 18 -2 21 3 3 4 0 10 -6 12 -7 2 6 4 27 5 21 1 45 -3 51 -9 12 -10
290 -2 280 8 -2 2 -80 6 -173 8 -216 6 -208 5 -214 41 -5 27 -6 25 -18 -23z"/>
<path d="M4836 2103 c-3 -21 -2 -54 3 -73 8 -30 9 -25 10 38 1 79 -4 93 -13
35z"/>
<path d="M4732 2085 c0 -16 2 -22 5 -12 2 9 2 23 0 30 -3 6 -5 -1 -5 -18z"/>
<path d="M16345 2080 c-3 -11 -11 -20 -16 -20 -5 0 -9 -7 -9 -15 0 -26 -30 -4
-31 24 l-1 26 -11 -26 c-11 -28 -15 -30 -147 -50 -36 -5 -89 -18 -118 -29 -63
-24 -76 -25 -68 -5 3 8 1 15 -4 15 -6 0 -10 -4 -10 -10 0 -5 -11 -10 -24 -10
-16 0 -26 7 -30 23 l-6 22 -22 -26 c-24 -28 -77 -42 -152 -40 -21 1 -43 -2
-50 -7 -6 -5 -40 -17 -76 -27 -36 -10 -70 -24 -76 -32 -12 -14 -34 -18 -34 -5
0 4 5 13 12 20 18 18 -12 16 -40 -4 l-22 -15 21 -22 c13 -14 22 -18 27 -11 4
6 21 14 37 17 17 3 39 7 50 10 11 3 34 9 50 13 17 4 46 15 65 25 19 9 63 20
98 24 51 5 63 3 68 -9 5 -14 9 -13 31 4 14 11 30 17 35 14 5 -3 17 -3 26 1 9
4 31 7 48 6 17 -1 58 4 90 12 118 29 215 41 224 28 5 -10 9 -9 13 3 6 16 47
18 47 3 0 -5 6 -5 13 1 6 5 53 15 102 22 50 6 122 20 160 30 l70 20 -83 -5
c-198 -13 -232 -13 -232 1 0 22 -18 25 -25 4z"/>
<path d="M4585 1978 c-4 -62 -5 -126 -3 -143 2 -16 7 32 11 109 5 76 6 140 4
143 -3 2 -8 -47 -12 -109z"/>
<path d="M4723 1985 c0 -27 2 -38 4 -22 2 15 2 37 0 50 -2 12 -4 0 -4 -28z"/>
<path d="M4822 2000 c0 -14 2 -19 5 -12 2 6 2 18 0 25 -3 6 -5 1 -5 -13z"/>
<path d="M12595 1940 c-17 -32 -25 -36 -42 -19 -8 8 -47 8 -144 0 -72 -6 -144
-11 -158 -12 -23 0 -24 -1 -6 -9 l20 -9 -20 -1 c-17 -2 -16 -3 5 -10 24 -9 24
-9 -5 -7 -28 2 -30 4 -28 42 2 38 1 39 -9 13 -15 -35 -75 -45 -81 -13 -3 13
-5 9 -6 -11 -2 -56 10 -94 30 -94 11 0 19 6 19 13 0 19 42 41 72 38 14 -1 40
5 57 14 24 12 58 15 146 14 110 -1 115 -2 115 -23 0 -20 1 -20 19 4 18 23 23
24 123 22 96 -2 292 -11 306 -14 4 -1 32 2 62 6 30 4 77 4 105 -1 l50 -8 -40
-19 c-22 -11 -64 -34 -94 -53 -56 -36 -70 -34 -71 10 0 9 -5 17 -11 17 -8 0
-10 -12 -6 -36 l6 -36 -32 6 c-32 6 -32 6 -9 -9 13 -10 22 -27 23 -43 0 -19 2
-22 7 -11 9 21 42 49 112 95 92 60 127 74 179 69 41 -5 43 -4 16 5 -73 25 -95
30 -187 36 -54 4 -99 11 -99 15 -1 5 -2 14 -3 21 -2 19 -26 21 -26 1 0 -27
-34 -44 -78 -38 -34 5 -151 11 -260 14 -40 1 -42 2 -36 26 8 34 -2 31 -21 -5z
m458 -47 c-7 -2 -21 -2 -30 0 -10 3 -4 5 12 5 17 0 24 -2 18 -5z"/>
<path d="M4831 1944 c0 -11 3 -14 6 -6 3 7 2 16 -1 19 -3 4 -6 -2 -5 -13z"/>
<path d="M5927 1933 c-4 -3 -7 -14 -7 -23 0 -10 -7 -23 -15 -30 -19 -15 -21
-74 -2 -65 6 4 3 0 -8 -9 -11 -8 -25 -20 -32 -26 -18 -15 -27 -12 -42 11 -10
18 -15 19 -22 8 -6 -10 -9 -7 -9 11 -1 23 -2 23 -14 8 -9 -13 -32 -18 -92 -21
l-79 -3 85 -2 c63 -2 81 -5 70 -13 -11 -8 -6 -9 22 -7 33 3 37 1 42 -24 3 -15
3 -36 0 -45 -4 -14 -1 -13 14 4 13 15 26 20 41 16 18 -4 21 -1 19 18 -3 21 1
24 32 24 44 0 71 -12 64 -28 -3 -9 -16 -12 -34 -9 -43 6 -37 -11 10 -32 25
-11 38 -22 33 -29 -4 -7 1 -6 10 2 10 8 34 15 55 17 98 8 137 17 117 25 -33
13 -95 11 -92 -3 1 -8 -10 -14 -25 -16 -32 -4 -33 -1 -13 38 19 37 0 53 -25
20 -15 -19 -18 -20 -23 -6 -4 9 -23 24 -43 33 -33 16 -35 20 -30 51 4 29 2 33
-12 27 -11 -4 -9 2 7 19 14 15 20 26 14 26 -6 0 -9 9 -6 20 5 20 2 25 -10 13z"/>
<path d="M11807 1923 c-4 -3 -7 -15 -7 -25 0 -10 -6 -18 -14 -18 -7 0 -16 -8
-19 -17 -2 -10 -8 -27 -13 -38 -7 -20 -7 -20 15 0 22 19 23 19 36 2 11 -15 13
-16 19 -2 3 8 17 20 31 25 29 11 25 30 -6 30 -14 0 -19 7 -19 25 0 24 -10 32
-23 18z"/>
<path d="M17752 1905 c0 -16 2 -22 5 -12 2 9 2 23 0 30 -3 6 -5 -1 -5 -18z"/>
<path d="M4502 1861 c0 -59 1 -63 13 -41 12 22 11 30 -8 90 -3 8 -5 -14 -5
-49z"/>
<path d="M15076 1891 c-10 -11 -23 -18 -29 -15 -16 5 -74 -42 -64 -52 4 -5 18
-2 30 6 16 11 59 15 162 16 126 1 225 14 225 31 0 3 -72 3 -160 0 -158 -6
-160 -6 -150 13 14 25 8 25 -14 1z"/>
<path d="M13435 1880 c-10 -11 -27 -19 -36 -18 -10 2 -17 -1 -16 -7 1 -5 10
-9 20 -8 11 2 17 -4 17 -17 0 -11 4 -20 10 -20 6 0 6 9 0 25 -5 14 -6 25 -2
25 4 0 13 9 20 20 16 26 10 26 -13 0z"/>
<path d="M5540 1871 c5 -11 10 -31 10 -45 0 -28 -7 -30 -80 -28 -20 0 -26 -2
-15 -5 37 -9 42 -26 7 -21 -19 3 -37 -1 -43 -8 -7 -9 2 -14 38 -19 55 -7 69
-5 67 13 -2 14 12 16 21 2 3 -5 15 -6 28 -1 24 9 35 61 13 61 -6 0 -18 16 -25
35 -7 19 -17 35 -22 35 -6 0 -6 -7 1 -19z m37 -93 c-3 -7 -5 -2 -5 12 0 14 2
19 5 13 2 -7 2 -19 0 -25z"/>
<path d="M4827 1873 c13 -2 30 -14 38 -26 8 -12 15 -16 15 -10 0 19 -30 43
-53 42 -22 -2 -22 -2 0 -6z"/>
<path d="M14664 1859 c-11 -13 -27 -19 -41 -16 -22 4 -33 -9 -33 -38 0 -10 7
-12 29 -5 19 5 33 4 40 -3 8 -8 11 -7 11 2 0 7 9 24 20 38 31 40 8 60 -26 22z"/>
<path d="M5200 1855 c11 -13 7 -15 -24 -15 -21 0 -35 4 -32 8 3 5 -8 8 -24 8
-16 0 -31 -5 -34 -12 -6 -15 20 -26 44 -19 9 3 33 -1 53 -10 42 -17 93 -20
102 -5 4 6 -5 10 -21 10 -22 0 -25 2 -14 15 14 17 80 21 80 5 0 -5 -7 -10 -15
-10 -28 0 -15 -21 22 -37 40 -16 88 -8 88 15 0 7 7 17 15 22 12 8 11 10 -7 10
-13 0 -23 -4 -23 -10 0 -18 -19 -10 -25 11 -5 15 -9 18 -15 9 -6 -9 -13 -9
-28 -1 -26 14 -85 14 -98 1 -8 -8 -15 -6 -24 5 -7 8 -17 15 -22 15 -6 0 -5 -7
2 -15z"/>
<path d="M11922 1859 c18 -7 51 -7 95 -1 l68 9 -95 1 c-74 0 -89 -2 -68 -9z"/>
<path d="M13459 1861 c7 -5 11 -13 7 -19 -9 -15 49 -20 62 -5 9 9 4 14 -26 22
-45 13 -62 14 -43 2z"/>
<path d="M4780 1833 c-16 -34 -17 -40 -2 -75 6 -16 18 -28 27 -28 8 0 15 -6
15 -13 0 -12 21 -34 48 -51 19 -12 14 13 -7 31 -11 9 -17 22 -14 29 3 10 -3
14 -21 14 -26 0 -52 32 -41 50 3 6 1 10 -5 10 -6 0 -2 10 10 22 21 23 26 38
12 38 -5 0 -15 -12 -22 -27z"/>
<path d="M5476 1844 c-5 -14 -4 -15 9 -4 17 14 19 20 6 20 -5 0 -12 -7 -15
-16z"/>
<path d="M11670 1850 c-30 -5 -103 -10 -162 -13 -65 -3 -114 -9 -123 -17 -12
-10 -15 -10 -15 1 0 9 -3 10 -8 3 -4 -6 -34 -10 -67 -10 -33 1 -73 -1 -90 -3
-16 -2 -60 -3 -97 -2 -57 1 -68 4 -68 18 0 14 -3 13 -16 -6 -11 -15 -24 -21
-38 -19 -19 4 -22 0 -22 -34 l-1 -38 28 21 29 20 0 -21 c0 -12 4 -18 11 -15 6
4 8 13 5 21 -4 11 4 14 33 14 22 0 41 5 43 10 2 6 56 12 128 14 105 3 126 1
136 -12 11 -14 13 -14 28 0 9 10 24 14 38 11 17 -5 20 -3 15 10 -5 14 -3 15
18 5 18 -8 35 -8 62 0 21 6 63 13 93 16 30 2 71 11 90 20 38 17 32 17 -50 6z"/>
<path d="M14750 1845 l-45 -13 40 -3 c54 -5 225 12 225 23 0 12 -169 7 -220
-7z"/>
<path d="M5022 1827 c-20 -21 -29 -23 -114 -20 -62 1 -85 -1 -68 -6 14 -5 56
-9 93 -10 75 -1 106 -12 108 -39 1 -16 13 26 21 72 5 28 -15 30 -40 3z m14
-25 c-22 -23 -29 -10 -9 18 11 16 18 19 21 11 2 -7 -3 -20 -12 -29z"/>
<path d="M7900 1815 c-18 -19 -34 -25 -69 -26 -25 0 -64 -3 -86 -8 -34 -6 -24
-8 65 -15 58 -5 113 -8 122 -8 9 0 19 -7 21 -16 4 -16 5 -16 6 0 1 24 53 32
164 25 91 -6 91 -6 37 7 -34 7 -82 10 -125 6 -38 -3 -71 -3 -73 1 -2 4 -11 5
-19 2 -12 -5 -15 -2 -10 10 4 9 10 24 13 32 10 24 -20 18 -46 -10z"/>
<path d="M6787 1823 c-4 -3 -7 -14 -7 -22 0 -9 -14 -22 -32 -29 l-33 -13 25
-19 c14 -11 31 -25 38 -30 12 -11 17 -1 12 29 -1 11 9 12 49 7 61 -8 72 10 12
20 -36 6 -39 8 -31 29 5 13 6 26 3 29 -8 8 -28 8 -36 -1z"/>
<path d="M13595 1822 c11 -5 49 -12 85 -15 46 -3 58 -2 41 4 -33 13 -153 23
-126 11z"/>
<path d="M13849 1815 c-8 -8 -33 -16 -56 -17 -40 -3 -41 -4 -25 -23 9 -11 18
-22 19 -24 2 -2 12 4 22 13 11 10 27 15 38 12 38 -12 242 -16 287 -6 53 12 73
6 55 -16 -7 -8 -7 -14 -1 -14 5 0 12 7 16 15 3 8 13 15 21 15 9 0 13 -4 10
-10 -3 -5 -2 -10 3 -10 6 0 13 7 16 15 4 12 19 16 53 14 66 -2 214 12 238 23
12 5 -31 6 -105 2 -202 -10 -215 -10 -212 5 2 11 -2 11 -20 -1 -28 -18 -228
-33 -306 -22 -44 6 -50 8 -36 19 10 7 13 15 7 18 -5 3 -16 0 -24 -8z"/>
<path d="M7490 1816 c0 -4 5 -17 11 -28 11 -20 10 -21 -43 -15 -31 3 -76 -1
-108 -9 l-55 -13 105 2 c80 2 108 -1 116 -12 9 -11 15 -11 34 -1 13 7 43 10
71 8 31 -3 53 -1 59 7 14 17 2 25 -42 25 -25 0 -37 4 -33 11 4 6 -3 5 -14 -3
-18 -11 -23 -11 -30 1 -5 7 -14 10 -21 6 -6 -4 -20 1 -31 11 -10 9 -19 14 -19
10z"/>
<path d="M4373 1774 c4 -22 4 -33 1 -26 -9 19 -28 14 -52 -13 -13 -14 -33 -25
-47 -25 -32 0 -32 -18 1 -30 35 -14 71 -12 77 3 3 7 9 2 15 -13 l11 -25 0 26
c1 40 24 44 106 22 17 -5 18 -4 3 10 -8 9 -30 17 -49 19 -31 3 -34 6 -39 42
-3 22 -11 41 -19 44 -11 4 -12 -4 -8 -34z"/>
<path d="M4643 1775 c-16 -19 -45 -41 -66 -50 -20 -8 -37 -17 -37 -19 0 -8 73
16 96 31 24 15 31 10 28 -24 -1 -17 4 -23 18 -23 11 0 32 -7 48 -16 18 -11 37
-14 54 -10 29 7 26 26 -4 26 -11 0 -24 9 -30 20 -6 11 -19 20 -29 20 -24 0
-34 25 -15 40 22 19 17 40 -10 40 -16 0 -35 -12 -53 -35z"/>
<path d="M5095 1790 c3 -6 17 -10 30 -10 13 0 25 -5 27 -11 2 -6 42 -11 100
-12 61 -1 93 -6 87 -11 -19 -20 -8 -26 16 -10 36 24 31 37 -12 31 -21 -2 -74
2 -118 10 -44 7 -93 15 -108 18 -17 3 -26 1 -22 -5z"/>
<path d="M8344 1785 c-4 -9 -13 -13 -24 -10 -28 9 -50 -5 -50 -32 0 -22 3 -24
23 -18 12 3 27 7 33 7 5 1 15 16 21 35 10 33 8 47 -3 18z"/>
<path d="M7108 1773 c-3 -15 -14 -17 -87 -14 -58 2 -81 0 -77 -8 4 -6 39 -11
82 -11 59 0 74 -3 74 -15 0 -19 27 -19 64 0 16 9 45 14 64 13 23 -2 37 2 40
11 4 11 -4 13 -39 7 l-43 -7 20 22 c19 22 19 22 -2 11 -22 -11 -62 -11 -81 1
-7 4 -13 0 -15 -10z"/>
<path d="M4482 1756 c-11 -25 -7 -36 15 -36 14 0 18 46 4 54 -4 3 -13 -5 -19
-18z"/>
<path d="M10856 1755 c-26 -17 -50 -25 -81 -25 -25 0 -45 -4 -45 -9 0 -17 114
0 133 20 10 10 30 21 45 25 45 10 48 12 16 13 -18 1 -47 -10 -68 -24z"/>
<path d="M3232 1744 c2 -29 4 -31 28 -24 14 4 90 5 168 2 95 -3 142 -1 142 6
0 12 -76 20 -220 24 -58 2 -108 8 -113 13 -4 6 -6 -4 -5 -21z"/>
<path d="M4868 1763 c12 -2 32 -2 45 0 12 2 2 4 -23 4 -25 0 -35 -2 -22 -4z"/>
<path d="M6440 1745 c-27 -28 -40 -32 -40 -10 0 21 -17 19 -24 -3 -6 -16 -16
-18 -84 -17 -53 2 -58 1 -17 -2 59 -4 101 -25 89 -45 -3 -5 3 -4 15 4 12 7 21
18 21 25 0 6 10 11 23 11 59 -4 98 3 95 15 -3 6 -14 13 -26 15 -13 2 -19 8
-15 18 8 22 -11 17 -37 -11z m20 -25 c-20 -13 -33 -13 -25 0 3 6 14 10 23 10
15 0 15 -2 2 -10z"/>
<path d="M8647 1700 c-27 -55 -31 -67 -16 -60 10 6 25 20 33 32 14 20 23 21
190 22 160 1 175 -1 170 -16 -6 -19 26 -33 56 -23 13 4 20 2 20 -7 0 -9 3 -10
8 -2 10 16 71 24 186 23 112 0 140 -9 130 -41 l-6 -21 27 21 c22 17 41 22 89
22 86 0 136 10 136 26 0 11 -23 14 -105 14 -104 0 -106 0 -103 23 4 26 -14 40
-18 14 -7 -47 -10 -49 -87 -42 -126 11 -244 13 -219 4 30 -11 28 -19 -7 -19
-24 0 -28 3 -24 23 4 22 3 22 -109 23 -62 0 -156 4 -209 8 -89 7 -96 9 -92 27
12 44 -17 14 -50 -51z m926 -27 c-13 -2 -35 -2 -50 0 -16 2 -5 4 22 4 28 0 40
-2 28 -4z"/>
<path d="M2163 1741 c-7 -11 -25 -21 -40 -23 -37 -4 -43 -35 -9 -44 14 -3 27
-11 29 -17 2 -7 2 -1 0 12 -5 28 15 45 34 29 9 -7 13 -7 13 0 0 6 28 11 71 11
39 0 74 3 77 6 3 3 -34 5 -82 5 -83 0 -87 1 -81 20 8 25 3 26 -12 1z"/>
<path d="M2810 1745 c0 -12 -16 -15 -95 -15 -52 0 -95 -3 -95 -7 0 -5 44 -6
99 -5 l98 4 7 -26 c8 -33 26 -34 26 -1 0 25 1 25 83 26 134 2 158 16 29 18
-62 0 -122 6 -133 11 -15 8 -19 7 -19 -5z"/>
<path d="M3629 1743 c-29 -11 -36 -19 -32 -34 6 -20 29 -25 53 -9 9 5 19 5 27
-2 10 -8 12 -7 7 6 -6 15 7 16 152 13 l159 -5 -70 15 c-48 9 -99 12 -162 8
-75 -5 -92 -4 -95 8 -3 13 -8 13 -39 0z"/>
<path d="M4075 1743 c-5 -12 -9 -14 -12 -5 -3 6 -13 12 -24 12 -14 0 -19 -7
-19 -30 0 -25 4 -30 23 -30 16 0 26 9 35 32 12 33 10 52 -3 21z"/>
<path d="M5775 1749 c-4 -6 -5 -12 -2 -15 2 -3 7 2 10 11 7 17 1 20 -8 4z"/>
<path d="M8228 1753 c7 -3 16 -2 19 1 4 3 -2 6 -13 5 -11 0 -14 -3 -6 -6z"/>
<path d="M8380 1751 c23 -7 23 -8 5 -13 -11 -3 -5 -4 14 -2 18 2 59 -4 90 -12
40 -10 70 -12 97 -6 38 8 37 9 -41 20 -119 17 -195 23 -165 13z"/>
<path d="M10609 1740 c-4 -26 -7 -26 -253 -54 l-58 -6 6 26 c5 19 3 25 -6 22
-7 -3 -14 -14 -16 -25 -4 -27 -39 -37 -51 -15 -15 26 -26 5 -12 -24 6 -14 8
-31 5 -37 -5 -8 -2 -8 7 1 16 14 59 16 59 2 0 -5 5 -10 11 -10 8 0 8 4 0 14
-18 21 11 38 51 31 18 -3 66 1 106 9 40 9 91 16 113 16 34 0 39 -3 40 -22 l0
-23 11 22 c6 13 28 27 54 34 58 17 56 29 -5 29 -39 0 -50 4 -54 18 -3 12 -5
11 -8 -8z"/>
<path d="M2443 1705 c0 -25 4 -45 9 -45 4 0 8 5 8 10 0 6 9 19 19 29 20 20 20
20 -2 27 -12 4 -25 11 -28 16 -3 5 -6 -12 -6 -37z"/>
<path d="M2530 1746 c0 -2 16 -6 35 -8 19 -2 35 0 35 4 0 4 -16 8 -35 8 -19 0
-35 -2 -35 -4z"/>
<path d="M6565 1735 c-52 -17 -28 -17 60 -1 64 13 66 14 25 14 -25 0 -63 -5
-85 -13z"/>
<path d="M3148 1733 c7 -3 16 -2 19 1 4 3 -2 6 -13 5 -11 0 -14 -3 -6 -6z"/>
<path d="M5541 1696 c-6 -25 -7 -54 -3 -66 7 -18 10 -8 18 44 11 75 2 89 -15
22z"/>
<path d="M1776 1723 c-3 -3 -1 -13 6 -20 8 -10 8 -17 1 -21 -5 -4 -13 -20 -16
-37 -5 -27 -4 -28 8 -11 9 12 20 16 34 11 25 -8 25 -5 7 39 -15 35 -29 50 -40
39z"/>
<path d="M3098 1724 c-3 -3 -43 -9 -89 -13 l-84 -8 65 -1 c56 0 173 24 129 27
-9 1 -18 -2 -21 -5z"/>
<path d="M4105 1714 l-30 -15 30 7 c17 4 38 7 47 8 9 0 14 4 12 8 -7 11 -24 9
-59 -8z"/>
<path d="M12923 1705 c-29 -13 -72 -37 -95 -53 -24 -16 -58 -34 -76 -40 -18
-6 -46 -20 -62 -32 -21 -15 -30 -17 -33 -8 -3 8 -7 6 -12 -7 -4 -11 -17 -27
-28 -36 -20 -17 -20 -17 9 -12 16 3 36 12 45 19 13 11 19 11 40 -3 l24 -17
-19 22 c-15 17 -17 25 -8 34 7 7 12 9 12 5 0 -4 26 9 58 30 31 20 82 49 112
64 50 25 103 59 90 58 -3 0 -28 -11 -57 -24z"/>
<path d="M2578 1703 c7 -3 16 -2 19 1 4 3 -2 6 -13 5 -11 0 -14 -3 -6 -6z"/>
<path d="M9825 1680 c4 -19 6 -45 7 -57 0 -19 3 -20 18 -10 10 6 17 14 14 18
-4 8 24 21 34 16 4 -2 75 1 157 8 l150 12 -125 4 c-69 1 -136 2 -150 1 -26 -2
-44 -2 -71 -1 -9 0 -22 10 -28 22 -10 19 -11 18 -6 -13z"/>
<path d="M1943 1683 c15 -2 39 -2 55 0 15 2 2 4 -28 4 -30 0 -43 -2 -27 -4z"/>
<path d="M1660 1670 c-47 -4 -98 -13 -115 -19 l-30 -11 35 6 c19 3 72 9 117
13 45 3 85 10 89 14 4 4 3 6 -2 5 -5 0 -47 -4 -94 -8z"/>
<path d="M9735 1670 c33 -4 64 -3 70 2 5 4 -22 7 -60 7 l-70 -2 60 -7z"/>
<path d="M1403 1657 c-8 -13 -145 -53 -217 -64 -22 -3 -47 -12 -55 -21 -14
-14 -13 -15 14 -7 17 4 46 11 65 16 19 4 67 17 105 27 73 21 94 17 96 -17 0
-10 3 -8 10 7 5 15 5 30 -1 41 -5 10 -6 21 -3 25 3 3 4 6 0 6 -3 0 -10 -6 -14
-13z"/>
<path d="M1033 1574 c0 -13 8 -30 17 -39 16 -14 19 -14 27 -2 4 8 15 17 23 20
12 4 11 6 -2 6 -10 1 -18 7 -18 15 0 7 -11 16 -24 18 -19 4 -23 1 -23 -18z"/>
<path d="M639 1563 c-1 -5 -1 -11 0 -15 0 -5 -49 -8 -111 -8 -61 0 -109 -2
-107 -4 2 -2 54 -6 114 -9 101 -4 110 -6 107 -23 -2 -17 -1 -17 15 3 18 22 95
38 218 47 28 2 -10 2 -82 1 -73 -1 -133 1 -133 6 0 11 -20 12 -21 2z"/>
<path d="M968 1563 c7 -3 16 -2 19 1 4 3 -2 6 -13 5 -11 0 -14 -3 -6 -6z"/>
<path d="M4823 1470 c0 -30 2 -43 4 -27 2 15 2 39 0 55 -2 15 -4 2 -4 -28z"/>
<path d="M12530 1485 c-30 -19 -50 -35 -44 -35 11 0 104 59 104 66 0 7 -5 5
-60 -31z"/>
<path d="M17981 1504 c0 -11 3 -14 6 -6 3 7 2 16 -1 19 -3 4 -6 -2 -5 -13z"/>
<path d="M4551 1484 c0 -11 3 -14 6 -6 3 7 2 16 -1 19 -3 4 -6 -2 -5 -13z"/>
<path d="M4543 1395 c0 -27 2 -38 4 -22 2 15 2 37 0 50 -2 12 -4 0 -4 -28z"/>
<path d="M12420 1420 c-14 -10 -40 -21 -58 -25 -52 -10 -82 -26 -88 -49 -4
-14 -30 -32 -80 -55 -93 -43 -127 -66 -67 -46 44 15 171 80 188 96 15 15 43
10 49 -8 3 -11 4 -7 3 7 -1 17 -8 25 -20 24 -9 -1 -17 2 -17 7 0 5 11 8 24 7
23 -2 96 39 96 55 0 10 -2 9 -30 -13z"/>
<path d="M4622 1400 c0 -19 2 -27 5 -17 2 9 2 25 0 35 -3 9 -5 1 -5 -18z"/>
<path d="M4813 1375 c0 -22 2 -30 4 -17 2 12 2 30 0 40 -3 9 -5 -1 -4 -23z"/>
<path d="M4793 1182 c-1 -106 2 -203 7 -215 10 -26 11 332 1 378 -4 17 -7 -57
-8 -163z"/>
<path d="M4611 1314 c0 -11 3 -14 6 -6 3 7 2 16 -1 19 -3 4 -6 -2 -5 -13z"/>
<path d="M11991 1198 c-36 -16 -45 -17 -52 -6 -7 10 -9 10 -9 0 0 -7 -4 -10
-10 -7 -5 3 -10 -3 -10 -14 0 -12 3 -21 8 -22 4 0 17 -2 30 -5 15 -3 22 1 22
11 0 9 8 19 18 22 21 8 68 43 56 42 -5 0 -29 -10 -53 -21z"/>
<path d="M11787 1126 c-68 -28 -85 -41 -42 -30 32 7 115 44 115 50 0 8 -16 3
-73 -20z"/>
<path d="M11625 1069 c-16 -5 -36 -7 -42 -4 -7 2 -13 -1 -13 -8 0 -9 -2 -9 -8
-1 -5 9 -11 8 -20 -2 -11 -12 -9 -14 9 -14 15 0 19 -4 15 -15 -17 -42 -15 -46
6 -14 16 27 35 41 68 52 48 16 35 21 -15 6z"/>
<path d="M10384 1045 c-5 -19 -13 -25 -35 -25 -31 0 -39 -17 -14 -26 12 -5 13
-9 4 -20 -7 -8 -9 -17 -6 -20 3 -3 15 8 28 25 20 28 26 30 66 24 29 -4 43 -2
43 6 0 6 -17 11 -41 11 -39 0 -41 1 -35 25 4 14 4 25 1 25 -2 0 -7 -11 -11
-25z"/>
<path d="M11488 1033 c6 -2 18 -2 25 0 6 3 1 5 -13 5 -14 0 -19 -2 -12 -5z"/>
<path d="M11438 1023 c6 -2 18 -2 25 0 6 3 1 5 -13 5 -14 0 -19 -2 -12 -5z"/>
<path d="M9790 1008 c-215 -16 -227 -24 -45 -25 94 -1 174 -2 179 -3 4 0 5 -8
2 -17 -6 -14 -2 -12 17 5 19 18 36 22 98 23 41 1 108 5 149 9 63 6 49 7 -85 9
-88 0 -169 3 -180 5 -11 2 -72 -1 -135 -6z"/>
<path d="M10750 1011 c0 -7 -4 -9 -10 -6 -5 3 -10 0 -10 -8 0 -9 14 -17 37
-20 44 -8 51 -3 29 18 -9 9 -16 13 -16 9 0 -3 -7 -1 -15 6 -11 9 -15 9 -15 1z"/>
<path d="M11368 1013 c6 -2 18 -2 25 0 6 3 1 5 -13 5 -14 0 -19 -2 -12 -5z"/>
<path d="M10613 1003 c15 -2 37 -2 50 0 12 2 0 4 -28 4 -27 0 -38 -2 -22 -4z"/>
<path d="M11170 995 c-10 -12 -10 -15 3 -15 9 0 18 -8 20 -17 4 -17 5 -17 6 0
1 12 10 17 34 18 17 1 43 4 57 8 21 6 22 8 8 14 -10 3 -32 1 -50 -5 -24 -9
-33 -8 -36 0 -5 17 -27 15 -42 -3z"/>
<path d="M11328 1003 c7 -3 16 -2 19 1 4 3 -2 6 -13 5 -11 0 -14 -3 -6 -6z"/>
<path d="M9516 992 c-4 -7 -12 -10 -17 -7 -5 4 -9 -3 -9 -14 0 -11 5 -23 10
-26 6 -3 10 -2 10 4 0 6 11 13 25 17 14 3 25 11 25 16 0 6 -6 8 -14 5 -8 -3
-16 -1 -19 6 -2 8 -5 8 -11 -1z"/>
<path d="M10883 983 c26 -2 68 -2 95 0 26 2 4 3 -48 3 -52 0 -74 -1 -47 -3z"/>
<path d="M11088 983 c12 -2 32 -2 45 0 12 2 2 4 -23 4 -25 0 -35 -2 -22 -4z"/>
<path d="M9205 960 c-101 -8 -292 -41 -405 -70 -82 -21 -86 -21 165 11 100 13
151 16 153 9 3 -7 10 -6 19 2 9 7 82 23 162 34 135 20 141 22 71 21 -41 0
-115 -4 -165 -7z"/>
</g>
</svg>
